<?xml version="1.0" encoding="UTF-8" standalone="no"?>
<!-- Created with Inkscape (http://www.inkscape.org/) -->

<svg
   xmlns:dc="http://purl.org/dc/elements/1.1/"
   xmlns:cc="http://creativecommons.org/ns#"
   xmlns:rdf="http://www.w3.org/1999/02/22-rdf-syntax-ns#"
   xmlns:svg="http://www.w3.org/2000/svg"
   xmlns="http://www.w3.org/2000/svg"
   xmlns:sodipodi="http://sodipodi.sourceforge.net/DTD/sodipodi-0.dtd"
   xmlns:inkscape="http://www.inkscape.org/namespaces/inkscape"
   width="16"
   height="16"
   viewBox="0 0 4.233333 4.2333332"
   version="1.1"
   id="svg8"
   inkscape:version="0.92.4 (5da689c313, 2019-01-14)"
   sodipodi:docname="2p5D_water_icon.svg">
  <defs
     id="defs2" />
  <sodipodi:namedview
     id="base"
     pagecolor="#ffffff"
     bordercolor="#666666"
     borderopacity="1.0"
     inkscape:pageopacity="0.0"
     inkscape:pageshadow="2"
     inkscape:zoom="26.339073"
     inkscape:cx="10.235172"
     inkscape:cy="6.5064736"
     inkscape:document-units="mm"
     inkscape:current-layer="layer1"
     showgrid="false"
     inkscape:window-width="1366"
     inkscape:window-height="706"
     inkscape:window-x="-8"
     inkscape:window-y="-8"
     inkscape:window-maximized="1"
     units="px" />
  <metadata
     id="metadata5">
    <rdf:RDF>
      <cc:Work
         rdf:about="">
        <dc:format>image/svg+xml</dc:format>
        <dc:type
           rdf:resource="http://purl.org/dc/dcmitype/StillImage" />
        <dc:title></dc:title>
      </cc:Work>
    </rdf:RDF>
  </metadata>
  <g
     inkscape:label="Layer 1"
     inkscape:groupmode="layer"
     id="layer1"
     transform="translate(0.531241,-182.38331)">
    <path
       style="color:#000000;font-style:normal;font-variant:normal;font-weight:normal;font-stretch:normal;font-size:medium;line-height:normal;font-family:sans-serif;font-variant-ligatures:normal;font-variant-position:normal;font-variant-caps:normal;font-variant-numeric:normal;font-variant-alternates:normal;font-feature-settings:normal;text-indent:0;text-align:start;text-decoration:none;text-decoration-line:none;text-decoration-style:solid;text-decoration-color:#000000;letter-spacing:normal;word-spacing:normal;text-transform:none;writing-mode:lr-tb;direction:ltr;text-orientation:mixed;dominant-baseline:auto;baseline-shift:baseline;text-anchor:start;white-space:normal;shape-padding:0;clip-rule:nonzero;display:inline;overflow:visible;visibility:visible;opacity:1;isolation:auto;mix-blend-mode:normal;color-interpolation:sRGB;color-interpolation-filters:linearRGB;solid-color:#000000;solid-opacity:1;vector-effect:none;fill:#fb9b9b;fill-opacity:1;fill-rule:nonzero;stroke:none;stroke-width:0.00644754px;stroke-linecap:butt;stroke-linejoin:miter;stroke-miterlimit:4;stroke-dasharray:none;stroke-dashoffset:0;stroke-opacity:1;color-rendering:auto;image-rendering:auto;shape-rendering:auto;text-rendering:auto;enable-background:accumulate"
       d="m 2.6896177,182.77505 -0.00361,0.007 c 0,0 -0.3530046,0.67709 -1.0267312,0.68083 -0.67369611,0.004 -1.05722725,-0.67867 -1.05722725,-0.67867 l -0.003361,-0.006 -0.002497,0.006 c 0,0 -0.27368524,0.69041 -1.12744004,0.66843 l 0.0114706,0.42102 c 0.8471761,0.0218 1.09140275,-0.54428 1.097932,-0.56038 0.00847,0.015 0.38910439,0.57392 1.05972459,0.5702 0.6694174,-0.004 1.0200832,-0.55474 1.0290843,-0.57181 0.2250929,0.29866 0.6882526,0.54655 1.0326105,0.55464 l -0.011566,-0.42103 c -0.4398167,-0.036 -0.7380982,-0.25482 -0.995995,-0.66309 z"
       id="path10"
       inkscape:connector-curvature="0"
       sodipodi:nodetypes="ccsccccccsccccc" />
    <g
       aria-label="2.5D"
       transform="scale(0.99355953,1.0064822)"
       style="font-style:normal;font-variant:normal;font-weight:bold;font-stretch:normal;font-size:1.52525187px;line-height:1.25;font-family:sans-serif;-inkscape-font-specification:'sans-serif, Bold';font-variant-ligatures:normal;font-variant-caps:normal;font-variant-numeric:normal;font-feature-settings:normal;text-align:start;letter-spacing:0px;word-spacing:0px;writing-mode:lr-tb;text-anchor:start;fill:#fb9b9b;fill-opacity:1;stroke:none;stroke-width:0.14299078"
       id="text817">
      <g
         id="g832">
        <path
           id="path819"
           style="font-style:normal;font-variant:normal;font-weight:bold;font-stretch:normal;font-size:1.52525187px;font-family:sans-serif;-inkscape-font-specification:'sans-serif, Bold';font-variant-ligatures:normal;font-variant-caps:normal;font-variant-numeric:normal;font-feature-settings:normal;text-align:start;writing-mode:lr-tb;text-anchor:start;fill:#fb9b9b;fill-opacity:1;stroke-width:0.14299078"
           d="m 0.59656205,184.39091 h -0.87061496 v -0.1832 q 0.0997968,-0.0722 0.19959351,-0.15342 0.10054151,-0.0812 0.16086641,-0.14002 0.09011498,-0.0871 0.12809732,-0.15193 0.0379824,-0.0648 0.0379824,-0.12809 0,-0.076 -0.0491536,-0.11693 -0.0484089,-0.0417 -0.14001335,-0.0417 -0.06851717,0 -0.14448187,0.0283 -0.07521994,0.0283 -0.14001335,0.0722 h -0.0238321 v -0.24652 q 0.0528774,-0.0231 0.15565314,-0.0462 0.10352051,-0.0231 0.20704103,-0.0231 0.20853053,0 0.31800905,0.0879 0.10947853,0.0871 0.10947853,0.24726 0,0.10501 -0.0528774,0.19959 -0.0521326,0.0946 -0.16012166,0.19513 -0.0677724,0.0626 -0.13628959,0.11543 -0.0685172,0.0521 -0.0975625,0.073 h 0.49823901 z" />
        <path
           id="path821"
           style="font-style:normal;font-variant:normal;font-weight:bold;font-stretch:normal;font-size:1.52525187px;font-family:sans-serif;-inkscape-font-specification:'sans-serif, Bold';font-variant-ligatures:normal;font-variant-caps:normal;font-variant-numeric:normal;font-feature-settings:normal;text-align:start;writing-mode:lr-tb;text-anchor:start;fill:#fb9b9b;fill-opacity:1;stroke-width:0.14299078"
           d="M 1.0873535,184.39091 H 0.80881628 v -0.29268 H 1.0873535 Z" />
        <path
           id="path823"
           style="font-style:normal;font-variant:normal;font-weight:bold;font-stretch:normal;font-size:1.52525187px;font-family:sans-serif;-inkscape-font-specification:'sans-serif, Bold';font-variant-ligatures:normal;font-variant-caps:normal;font-variant-numeric:normal;font-feature-settings:normal;text-align:start;writing-mode:lr-tb;text-anchor:start;fill:#fb9b9b;fill-opacity:1;stroke-width:0.14299078"
           d="m 2.2082051,184.01556 q 0,0.0864 -0.032769,0.16087 -0.032024,0.0737 -0.093839,0.1266 -0.068517,0.0566 -0.1578874,0.0842 -0.088625,0.0268 -0.2025725,0.0268 -0.1333106,-7.4e-4 -0.2256598,-0.0216 -0.091605,-0.0201 -0.1496951,-0.0454 v -0.24502 h 0.031279 q 0.067773,0.0402 0.1459714,0.067 0.078199,0.0268 0.1556532,0.0268 0.046919,0 0.1012862,-0.0104 0.055112,-0.0112 0.087136,-0.0395 0.025322,-0.0231 0.037982,-0.0469 0.013406,-0.0238 0.013406,-0.0737 0,-0.0387 -0.017874,-0.0663 -0.017129,-0.0283 -0.044685,-0.0454 -0.040217,-0.0246 -0.096818,-0.032 -0.056601,-0.008 -0.1027758,-0.008 -0.067028,0 -0.1288421,0.0119 -0.06107,0.0112 -0.1072442,0.0223 h -0.032769 v -0.62559 h 0.7886922 v 0.21225 H 1.656344 v 0.18098 q 0.023087,-0.001 0.058091,-0.002 0.035748,-0.001 0.062559,-0.001 0.091604,0 0.1631007,0.0179 0.072241,0.0171 0.1243735,0.0484 0.067772,0.041 0.1057548,0.10873 0.037982,0.067 0.037982,0.16906 z" />
        <path
           id="path825"
           style="font-style:normal;font-variant:normal;font-weight:bold;font-stretch:normal;font-size:1.52525187px;font-family:sans-serif;-inkscape-font-specification:'sans-serif, Bold';font-variant-ligatures:normal;font-variant-caps:normal;font-variant-numeric:normal;font-feature-settings:normal;text-align:start;writing-mode:lr-tb;text-anchor:start;fill:#fb9b9b;fill-opacity:1;stroke-width:0.14299078"
           d="m 3.4973706,183.83756 q 0,0.15491 -0.070751,0.2778 -0.070751,0.12214 -0.1787405,0.18767 -0.081178,0.0492 -0.1779957,0.0685 -0.096818,0.0194 -0.2293836,0.0194 H 2.4495047 v -1.10893 h 0.402166 q 0.1355449,0 0.2338521,0.0231 0.098307,0.0223 0.1653349,0.0641 0.1146918,0.07 0.18023,0.18916 0.066283,0.11842 0.066283,0.27928 z m -0.2956665,-0.002 q 0,-0.10948 -0.040217,-0.18693 -0.039472,-0.0782 -0.1258631,-0.12214 -0.04394,-0.0216 -0.090115,-0.0291 -0.04543,-0.008 -0.1377791,-0.008 h -0.072241 v 0.69411 h 0.072241 q 0.102031,0 0.1496951,-0.009 0.047664,-0.01 0.093094,-0.0343 0.078199,-0.0447 0.1146918,-0.11916 0.036493,-0.0752 0.036493,-0.18544 z" />
      </g>
    </g>
  </g>
</svg>
